# xmcd
#
# Track frame offsets:
#	150
#	14010
#	26045
#	48155
#	66050
#	99335
#	113570
#	129685
#	141511
#	153650
#	170865
#
# Disc length: 2457 seconds
#
# Revision: 1
# Processed by: cddbd v1.5.2PL0 Copyright (c) Steve Scherf et al.
# Submitted via: EasyCDDAExtractor 7.0.6.1
#
DISCID=9b09970b
DTITLE=Various Artist - Небо не бывает одинаковым
DYEAR=2004
DGENRE=
TTITLE0=Марьяж (Декорации) - Между делом
TTITLE1=Марьяж (Декорации) - Степь
TTITLE2=Марьяж (Декорации) - Юродивая Русь
TTITLE3=Марьяж (Декорации) - На улицах Киева-Вия
TTITLE4=Марьяж (Декорации) - Шоссе в никуда
TTITLE5=Марьяж (Декорации) - Небо-крепость
TTITLE6=Марьяж (Декорации) - Настоящая леди
TTITLE7=Марьяж (Декорации) - Она rock'n'roll
TTITLE8=Марьяж (Декорации) - Туалетный житель
TTITLE9=Марьяж (Декорации) - Лети, ангел
TTITLE10=Марьяж «Декорации» - Белый ворон
EXTD=
EXTT0=
EXTT1=
EXTT2=
EXTT3=
EXTT4=
EXTT5=
EXTT6=
EXTT7=
EXTT8=
EXTT9=
EXTT10=
PLAYORDER=
